<mxfile host="app.diagrams.net" modified="2023-10-08T20:40:17.186Z" agent="Mozilla/5.0 (Macintosh; Intel Mac OS X 10_15_7) AppleWebKit/537.36 (KHTML, like Gecko) Chrome/115.0.0.0 Safari/537.36" etag="C49jb16na0tNFudOkQ7g" version="22.0.4" type="device">
  <diagram name="Страница — 1" id="VpHAUdO4gkYGxVP3KI3Q">
    <mxGraphModel dx="1026" dy="654" grid="1" gridSize="10" guides="1" tooltips="1" connect="1" arrows="1" fold="1" page="1" pageScale="1" pageWidth="827" pageHeight="1169" math="0" shadow="0">
      <root>
        <mxCell id="0" />
        <mxCell id="1" parent="0" />
        <mxCell id="it3cZ9z_LqRT2EpcLwya-1" value="USER" style="shape=umlActor;verticalLabelPosition=bottom;verticalAlign=top;html=1;outlineConnect=0;" vertex="1" parent="1">
          <mxGeometry x="40" y="200" width="40" height="80" as="geometry" />
        </mxCell>
        <mxCell id="it3cZ9z_LqRT2EpcLwya-2" value="Routing" style="rounded=0;whiteSpace=wrap;html=1;" vertex="1" parent="1">
          <mxGeometry x="240" y="80" width="120" height="320" as="geometry" />
        </mxCell>
        <mxCell id="it3cZ9z_LqRT2EpcLwya-3" value="" style="endArrow=classic;html=1;rounded=0;entryX=0;entryY=0.5;entryDx=0;entryDy=0;" edge="1" parent="1" source="it3cZ9z_LqRT2EpcLwya-1" target="it3cZ9z_LqRT2EpcLwya-2">
          <mxGeometry width="50" height="50" relative="1" as="geometry">
            <mxPoint x="510" y="360" as="sourcePoint" />
            <mxPoint x="560" y="310" as="targetPoint" />
          </mxGeometry>
        </mxCell>
        <mxCell id="it3cZ9z_LqRT2EpcLwya-4" value="HTTP REST API" style="edgeLabel;html=1;align=center;verticalAlign=middle;resizable=0;points=[];" vertex="1" connectable="0" parent="it3cZ9z_LqRT2EpcLwya-3">
          <mxGeometry x="0.1" relative="1" as="geometry">
            <mxPoint x="-8" as="offset" />
          </mxGeometry>
        </mxCell>
        <mxCell id="it3cZ9z_LqRT2EpcLwya-5" value="" style="endArrow=none;html=1;rounded=0;" edge="1" parent="1">
          <mxGeometry width="50" height="50" relative="1" as="geometry">
            <mxPoint x="320" y="80" as="sourcePoint" />
            <mxPoint x="370" y="30" as="targetPoint" />
          </mxGeometry>
        </mxCell>
        <mxCell id="it3cZ9z_LqRT2EpcLwya-6" value="" style="endArrow=none;html=1;rounded=0;" edge="1" parent="1">
          <mxGeometry width="50" height="50" relative="1" as="geometry">
            <mxPoint x="250" y="30" as="sourcePoint" />
            <mxPoint x="370" y="30" as="targetPoint" />
          </mxGeometry>
        </mxCell>
        <mxCell id="it3cZ9z_LqRT2EpcLwya-7" value="Framework" style="edgeLabel;html=1;align=center;verticalAlign=middle;resizable=0;points=[];" vertex="1" connectable="0" parent="it3cZ9z_LqRT2EpcLwya-6">
          <mxGeometry x="-0.225" y="-1" relative="1" as="geometry">
            <mxPoint x="3" y="-1" as="offset" />
          </mxGeometry>
        </mxCell>
        <mxCell id="it3cZ9z_LqRT2EpcLwya-9" value="Serialize + Struct Validation" style="rounded=0;whiteSpace=wrap;html=1;" vertex="1" parent="1">
          <mxGeometry x="440" y="80" width="120" height="120" as="geometry" />
        </mxCell>
        <mxCell id="it3cZ9z_LqRT2EpcLwya-10" value="Deserialize" style="rounded=0;whiteSpace=wrap;html=1;" vertex="1" parent="1">
          <mxGeometry x="440" y="280" width="120" height="120" as="geometry" />
        </mxCell>
        <mxCell id="it3cZ9z_LqRT2EpcLwya-11" value="" style="endArrow=classic;html=1;rounded=0;exitX=0.997;exitY=0.188;exitDx=0;exitDy=0;entryX=0;entryY=0.5;entryDx=0;entryDy=0;exitPerimeter=0;" edge="1" parent="1" source="it3cZ9z_LqRT2EpcLwya-2" target="it3cZ9z_LqRT2EpcLwya-9">
          <mxGeometry width="50" height="50" relative="1" as="geometry">
            <mxPoint x="620" y="240" as="sourcePoint" />
            <mxPoint x="670" y="190" as="targetPoint" />
          </mxGeometry>
        </mxCell>
        <mxCell id="it3cZ9z_LqRT2EpcLwya-12" value="Text" style="edgeLabel;html=1;align=center;verticalAlign=middle;resizable=0;points=[];" vertex="1" connectable="0" parent="it3cZ9z_LqRT2EpcLwya-11">
          <mxGeometry x="0.1096" y="-1" relative="1" as="geometry">
            <mxPoint x="-4" as="offset" />
          </mxGeometry>
        </mxCell>
        <mxCell id="it3cZ9z_LqRT2EpcLwya-13" value="" style="endArrow=classic;html=1;rounded=0;exitX=0;exitY=0.5;exitDx=0;exitDy=0;entryX=1.002;entryY=0.812;entryDx=0;entryDy=0;entryPerimeter=0;" edge="1" parent="1" source="it3cZ9z_LqRT2EpcLwya-10" target="it3cZ9z_LqRT2EpcLwya-2">
          <mxGeometry width="50" height="50" relative="1" as="geometry">
            <mxPoint x="550" y="320" as="sourcePoint" />
            <mxPoint x="370" y="340" as="targetPoint" />
          </mxGeometry>
        </mxCell>
        <mxCell id="it3cZ9z_LqRT2EpcLwya-14" value="Text" style="edgeLabel;html=1;align=center;verticalAlign=middle;resizable=0;points=[];" vertex="1" connectable="0" parent="it3cZ9z_LqRT2EpcLwya-13">
          <mxGeometry x="0.1194" y="-1" relative="1" as="geometry">
            <mxPoint x="5" y="1" as="offset" />
          </mxGeometry>
        </mxCell>
        <mxCell id="it3cZ9z_LqRT2EpcLwya-15" value="Business Logic" style="rounded=0;whiteSpace=wrap;html=1;" vertex="1" parent="1">
          <mxGeometry x="640" y="80" width="120" height="320" as="geometry" />
        </mxCell>
        <mxCell id="it3cZ9z_LqRT2EpcLwya-16" value="" style="endArrow=classic;html=1;rounded=0;exitX=0.997;exitY=0.188;exitDx=0;exitDy=0;entryX=0;entryY=0.5;entryDx=0;entryDy=0;exitPerimeter=0;" edge="1" parent="1">
          <mxGeometry width="50" height="50" relative="1" as="geometry">
            <mxPoint x="560" y="139.66" as="sourcePoint" />
            <mxPoint x="640" y="139.66" as="targetPoint" />
          </mxGeometry>
        </mxCell>
        <mxCell id="it3cZ9z_LqRT2EpcLwya-17" value="Schema" style="edgeLabel;html=1;align=center;verticalAlign=middle;resizable=0;points=[];" vertex="1" connectable="0" parent="it3cZ9z_LqRT2EpcLwya-16">
          <mxGeometry x="0.1096" y="-1" relative="1" as="geometry">
            <mxPoint x="-4" as="offset" />
          </mxGeometry>
        </mxCell>
        <mxCell id="it3cZ9z_LqRT2EpcLwya-18" value="" style="endArrow=classic;html=1;rounded=0;exitX=0;exitY=0.5;exitDx=0;exitDy=0;entryX=1.002;entryY=0.812;entryDx=0;entryDy=0;entryPerimeter=0;" edge="1" parent="1">
          <mxGeometry width="50" height="50" relative="1" as="geometry">
            <mxPoint x="640" y="320" as="sourcePoint" />
            <mxPoint x="560" y="320" as="targetPoint" />
          </mxGeometry>
        </mxCell>
        <mxCell id="it3cZ9z_LqRT2EpcLwya-19" value="Schema" style="edgeLabel;html=1;align=center;verticalAlign=middle;resizable=0;points=[];" vertex="1" connectable="0" parent="it3cZ9z_LqRT2EpcLwya-18">
          <mxGeometry x="0.1194" y="-1" relative="1" as="geometry">
            <mxPoint x="5" y="1" as="offset" />
          </mxGeometry>
        </mxCell>
        <mxCell id="it3cZ9z_LqRT2EpcLwya-20" value="" style="endArrow=classic;html=1;rounded=0;exitX=0;exitY=0.5;exitDx=0;exitDy=0;entryX=1.002;entryY=0.812;entryDx=0;entryDy=0;entryPerimeter=0;strokeColor=#FF0000;" edge="1" parent="1">
          <mxGeometry width="50" height="50" relative="1" as="geometry">
            <mxPoint x="640" y="360" as="sourcePoint" />
            <mxPoint x="560" y="360" as="targetPoint" />
          </mxGeometry>
        </mxCell>
        <mxCell id="it3cZ9z_LqRT2EpcLwya-21" value="&lt;font color=&quot;#ff0000&quot;&gt;Error&lt;/font&gt;" style="edgeLabel;html=1;align=center;verticalAlign=middle;resizable=0;points=[];" vertex="1" connectable="0" parent="it3cZ9z_LqRT2EpcLwya-20">
          <mxGeometry x="0.1194" y="-1" relative="1" as="geometry">
            <mxPoint x="5" y="1" as="offset" />
          </mxGeometry>
        </mxCell>
        <mxCell id="it3cZ9z_LqRT2EpcLwya-24" value="Services" style="rounded=0;whiteSpace=wrap;html=1;" vertex="1" parent="1">
          <mxGeometry x="840" y="80" width="120" height="120" as="geometry" />
        </mxCell>
        <mxCell id="it3cZ9z_LqRT2EpcLwya-29" value="Storage&lt;br style=&quot;border-color: var(--border-color);&quot;&gt;Schema" style="endArrow=classic;startArrow=classic;html=1;rounded=0;entryX=0;entryY=0.5;entryDx=0;entryDy=0;exitX=0.997;exitY=0.188;exitDx=0;exitDy=0;exitPerimeter=0;" edge="1" parent="1" source="it3cZ9z_LqRT2EpcLwya-15" target="it3cZ9z_LqRT2EpcLwya-24">
          <mxGeometry width="50" height="50" relative="1" as="geometry">
            <mxPoint x="777" y="190" as="sourcePoint" />
            <mxPoint x="827" y="140" as="targetPoint" />
          </mxGeometry>
        </mxCell>
        <mxCell id="it3cZ9z_LqRT2EpcLwya-31" value="API / Providers" style="rounded=0;whiteSpace=wrap;html=1;" vertex="1" parent="1">
          <mxGeometry x="840" y="280" width="120" height="120" as="geometry" />
        </mxCell>
        <mxCell id="it3cZ9z_LqRT2EpcLwya-32" value="API&lt;br style=&quot;border-color: var(--border-color);&quot;&gt;Schema" style="endArrow=classic;startArrow=classic;html=1;rounded=0;entryX=0;entryY=0.5;entryDx=0;entryDy=0;exitX=0.997;exitY=0.188;exitDx=0;exitDy=0;exitPerimeter=0;" edge="1" parent="1">
          <mxGeometry width="50" height="50" relative="1" as="geometry">
            <mxPoint x="760" y="339.66999999999996" as="sourcePoint" />
            <mxPoint x="840" y="339.66999999999996" as="targetPoint" />
            <mxPoint as="offset" />
          </mxGeometry>
        </mxCell>
        <mxCell id="it3cZ9z_LqRT2EpcLwya-33" value="DB" style="rounded=0;whiteSpace=wrap;html=1;" vertex="1" parent="1">
          <mxGeometry x="1040" y="80" width="120" height="120" as="geometry" />
        </mxCell>
        <mxCell id="it3cZ9z_LqRT2EpcLwya-34" value="External API" style="rounded=0;whiteSpace=wrap;html=1;" vertex="1" parent="1">
          <mxGeometry x="1040" y="280" width="120" height="120" as="geometry" />
        </mxCell>
        <mxCell id="it3cZ9z_LqRT2EpcLwya-35" value="SQL&lt;br&gt;ORM" style="endArrow=classic;startArrow=classic;html=1;rounded=0;entryX=0;entryY=0.5;entryDx=0;entryDy=0;exitX=0.997;exitY=0.188;exitDx=0;exitDy=0;exitPerimeter=0;" edge="1" parent="1">
          <mxGeometry width="50" height="50" relative="1" as="geometry">
            <mxPoint x="960" y="139.67" as="sourcePoint" />
            <mxPoint x="1040" y="139.67" as="targetPoint" />
            <mxPoint as="offset" />
          </mxGeometry>
        </mxCell>
        <mxCell id="it3cZ9z_LqRT2EpcLwya-36" value="REST API&lt;br&gt;GRPC" style="endArrow=classic;startArrow=classic;html=1;rounded=0;entryX=0;entryY=0.5;entryDx=0;entryDy=0;exitX=0.997;exitY=0.188;exitDx=0;exitDy=0;exitPerimeter=0;" edge="1" parent="1">
          <mxGeometry width="50" height="50" relative="1" as="geometry">
            <mxPoint x="960" y="339.66999999999996" as="sourcePoint" />
            <mxPoint x="1040" y="339.66999999999996" as="targetPoint" />
            <mxPoint as="offset" />
          </mxGeometry>
        </mxCell>
        <mxCell id="it3cZ9z_LqRT2EpcLwya-37" value="" style="endArrow=none;html=1;rounded=0;" edge="1" parent="1">
          <mxGeometry width="50" height="50" relative="1" as="geometry">
            <mxPoint x="520" y="80" as="sourcePoint" />
            <mxPoint x="570" y="30" as="targetPoint" />
          </mxGeometry>
        </mxCell>
        <mxCell id="it3cZ9z_LqRT2EpcLwya-38" value="" style="endArrow=none;html=1;rounded=0;" edge="1" parent="1">
          <mxGeometry width="50" height="50" relative="1" as="geometry">
            <mxPoint x="450" y="30" as="sourcePoint" />
            <mxPoint x="570" y="30" as="targetPoint" />
          </mxGeometry>
        </mxCell>
        <mxCell id="it3cZ9z_LqRT2EpcLwya-39" value="DRF&lt;br&gt;Pydantic&lt;br&gt;marshmallow" style="edgeLabel;html=1;align=center;verticalAlign=middle;resizable=0;points=[];" vertex="1" connectable="0" parent="it3cZ9z_LqRT2EpcLwya-38">
          <mxGeometry x="-0.225" y="-1" relative="1" as="geometry">
            <mxPoint x="3" y="-1" as="offset" />
          </mxGeometry>
        </mxCell>
        <mxCell id="it3cZ9z_LqRT2EpcLwya-41" value="" style="rounded=0;whiteSpace=wrap;html=1;fillColor=none;dashed=1;strokeColor=#3399FF;" vertex="1" parent="1">
          <mxGeometry x="540" y="40" width="120" height="390" as="geometry" />
        </mxCell>
        <mxCell id="it3cZ9z_LqRT2EpcLwya-42" value="view/handler" style="text;html=1;strokeColor=none;fillColor=none;align=center;verticalAlign=middle;whiteSpace=wrap;rounded=0;" vertex="1" parent="1">
          <mxGeometry x="570" y="40" width="60" height="30" as="geometry" />
        </mxCell>
        <mxCell id="it3cZ9z_LqRT2EpcLwya-43" value="" style="rounded=0;whiteSpace=wrap;html=1;fillColor=none;dashed=1;strokeColor=#3399FF;" vertex="1" parent="1">
          <mxGeometry x="860" y="40" width="80" height="150" as="geometry" />
        </mxCell>
        <mxCell id="it3cZ9z_LqRT2EpcLwya-44" value="model" style="text;html=1;strokeColor=none;fillColor=none;align=center;verticalAlign=middle;whiteSpace=wrap;rounded=0;" vertex="1" parent="1">
          <mxGeometry x="870" y="40" width="60" height="30" as="geometry" />
        </mxCell>
        <mxCell id="it3cZ9z_LqRT2EpcLwya-45" value="" style="shape=image;verticalLabelPosition=bottom;labelBackgroundColor=default;verticalAlign=top;aspect=fixed;imageAspect=0;image=https://blog.cleancoder.com/uncle-bob/images/2012-08-13-the-clean-architecture/CleanArchitecture.jpg;" vertex="1" parent="1">
          <mxGeometry x="40" y="450" width="445.23" height="327" as="geometry" />
        </mxCell>
      </root>
    </mxGraphModel>
  </diagram>
</mxfile>
